 <svg  version="1.0" xmlns="http://www.w3.org/2000/svg"  width="300.000000pt" height="300.000000pt" viewBox="0 0 300.000000 300.000000"  preserveAspectRatio="xMidYMid meet">  <g transform="translate(0.000000,300.000000) scale(0.100000,-0.100000)" fill="#ffffff" stroke="none"> <path d="M1138 1879 c-62 -14 -151 -64 -197 -111 -24 -23 -58 -72 -75 -108 -27 -57 -31 -78 -34 -167 -4 -98 -3 -102 20 -117 33 -22 80 -30 130 -22 l43 7 -3 107 c-5 132 13 215 63 287 52 75 93 99 181 103 64 4 78 1 124 -24 57 -31 96 -75 131 -147 26 -52 54 -65 45 -19 -2 15 -8 66 -11 115 -4 48 -11 87 -16 87 -5 0 -9 -5 -9 -11 0 -13 -46 -8 -130 16 -59 16 -201 19 -262 4z m-68 -75 c0 -3 -10 -19 -21 -36 -37 -52 -61 -146 -68 -263 l-6 -110 -36 -3 c-56 -5 -73 22 -72 111 1 112 53 211 147 278 38 28 56 35 56 23z"/> <path d="M1795 1871 c-141 -65 -169 -255 -52 -357 19 -18 85 -58 146 -90 143 -74 181 -113 181 -185 0 -91 -53 -143 -145 -143 -95 1 -183 74 -223 186 -9 26 -20 48 -24 48 -9 0 -17 -65 -20 -167 -3 -78 3 -102 16 -68 8 21 43 19 112 -6 85 -31 203 -31 264 0 58 30 87 57 110 101 47 92 31 207 -40 277 -23 24 -91 67 -169 107 -133 68 -165 95 -176 147 -8 36 19 95 56 122 34 24 108 25 149 0 35 -20 83 -87 100 -139 16 -47 30 -42 30 10 0 23 3 72 6 107 5 53 4 62 -7 52 -17 -17 -53 -16 -113 2 -67 20 -152 19 -201 -4z m291 -46 c4 -8 3 -22 0 -31 -5 -14 -9 -12 -26 9 -11 14 -20 28 -20 31 0 13 41 5 46 -9z m-334 -74 c-7 -90 24 -123 196 -211 57 -29 117 -64 134 -78 63 -53 87 -165 51 -240 l-18 -37 -8 55 c-14 101 -50 136 -226 225 -147 73 -191 132 -178 240 4 43 29 95 45 95 4 0 5 -22 4 -49z"/> <path d="M1435 1529 c-4 -6 3 -13 14 -16 20 -5 20 -7 7 -22 -14 -16 -9 -17 72 -16 48 0 96 -4 107 -9 18 -8 17 -6 -4 17 -13 14 -38 33 -56 41 -38 18 -130 21 -140 5z"/> <path d="M1345 1501 c-33 -16 -103 -54 -155 -85 -94 -56 -198 -96 -249 -96 -14 0 -46 9 -71 20 l-45 20 27 -24 c15 -13 50 -29 79 -35 87 -19 143 -4 332 87 131 63 158 82 120 82 -14 1 -12 5 10 23 26 22 34 37 20 37 -5 0 -35 -13 -68 -29z"/> <path d="M1485 1449 c-61 -14 -156 -51 -150 -57 3 -4 18 -8 33 -10 54 -7 62 -25 62 -138 0 -99 -1 -103 -26 -123 -86 -68 -247 -15 -319 104 l-30 50 -63 -3 c-41 -2 -73 2 -92 12 -38 18 -38 11 1 -47 113 -171 375 -225 622 -129 l67 26 0 107 c0 118 7 133 69 145 37 8 36 22 -5 46 -37 21 -117 30 -169 17z m135 -24 c23 -13 15 -14 -85 -14 -109 1 -110 1 -60 14 67 17 115 17 145 0z m-58 -51 c4 -3 3 -16 -2 -30 -6 -14 -10 -61 -10 -104 l0 -78 -37 -15 -38 -15 -6 112 c-3 61 -7 116 -8 121 -7 23 1 27 47 20 26 -4 50 -9 54 -11z m-494 -191 c29 -36 32 -43 16 -43 -26 1 -116 68 -108 81 13 22 57 3 92 -38z"/> </g> </svg> 